<svg width="31" height="33" viewBox="0 0 31 33" fill="none" xmlns="http://www.w3.org/2000/svg">
<path d="M24.2791 0C25.5003 0 26.5895 1.44082 26.5895 3.37622C26.5895 5.31852 25.5003 6.75244 24.2791 6.75244C23.0579 6.75244 21.9687 5.31852 21.9687 3.37622C21.9687 1.44082 23.0579 0 24.2791 0ZM15.5063 0C16.7209 0 17.8166 1.44082 17.8166 3.37622C17.8166 5.31852 16.7209 6.75244 15.5063 6.75244C14.2851 6.75244 13.1893 5.31852 13.1893 3.37622C13.1893 1.44082 14.2851 0 15.5063 0ZM6.7268 0C7.948 0 9.03718 1.44082 9.03718 3.37622C9.03718 5.31852 7.948 6.75244 6.7268 6.75244C5.50559 6.75244 4.41047 5.31852 4.41047 3.37622C4.41047 1.44082 5.50559 0 6.7268 0ZM15.5063 8.36272C19.731 8.51608 23.2956 8.51608 27.5731 8.68478C29.6128 10.0497 30.5568 17.0429 30.4974 19.4736L29.3356 20.8309C28.8273 17.549 28.187 13.1706 27.1242 12.1967V18.9139L27.3948 33H25.9294L24.827 18.8372H23.6388L22.5364 33H21.0644L21.3416 18.9139L20.8135 12.1277H18.8794L18.4041 18.8909L18.6814 32.977H17.2093L16.1004 18.8142H14.9122L13.8032 32.977H12.3377L12.615 18.8909L12.1331 12.1277H10.199L9.67089 18.9139L9.94813 33H8.47609L7.3737 18.8372H6.18551L5.07058 33H3.60514L3.88238 18.9139V12.1967C2.813 13.1706 2.1727 17.549 1.66441 20.8309L0.502619 19.4736C0.443209 17.0429 1.39377 10.0497 3.42691 8.68478C7.71696 8.51608 11.2816 8.51608 15.5063 8.36272Z" fill="#36444B"/>
</svg>
